<?xml version="1.0" standalone="no"?>
<!DOCTYPE svg PUBLIC "-//W3C//DTD SVG 20010904//EN"
 "http://www.w3.org/TR/2001/REC-SVG-20010904/DTD/svg10.dtd">
<svg version="1.0" xmlns="http://www.w3.org/2000/svg"
 width="1002.000000pt" height="463.000000pt" viewBox="0 0 1002.000000 463.000000"
 preserveAspectRatio="xMidYMid meet">

<g transform="translate(0.000000,463.000000) scale(0.100000,-0.100000)"
fill="#000000" stroke="none">
<path d="M1102 3035 c-35 -8 -88 -25 -118 -39 -61 -28 -174 -104 -174 -117 0
-5 136 -9 301 -9 l302 0 36 33 c21 17 51 42 67 53 l29 21 -40 17 c-129 55
-272 69 -403 41z"/>
<path d="M1724 3035 c-127 -35 -125 -40 17 -36 186 5 329 -26 429 -94 27 -18
73 -44 103 -58 29 -13 70 -39 92 -58 61 -54 26 1 -49 75 -72 71 -164 128 -256
157 -85 28 -262 35 -336 14z"/>
<path d="M1523 2870 c-75 -4 -107 -9 -118 -21 -15 -15 -2 -17 157 -22 184 -6
292 -24 435 -72 166 -56 337 -150 348 -192 3 -13 9 -23 14 -23 18 0 92 -57
117 -90 l26 -35 -6 70 c-7 77 -28 156 -51 192 -9 13 -43 37 -77 54 -202 102
-524 155 -845 139z"/>
<path d="M727 2788 c-33 -45 -68 -114 -60 -122 4 -3 142 -6 309 -6 l302 0 11
31 c6 16 24 50 41 75 16 25 30 47 30 50 0 2 -137 4 -304 4 l-305 0 -24 -32z"/>
<path d="M1311 2651 c-19 -3 -36 -11 -38 -17 -3 -8 43 -14 144 -18 289 -14
555 -88 751 -208 105 -64 142 -98 142 -128 0 -19 11 -36 41 -59 22 -19 49 -46
58 -63 l18 -29 20 48 c26 61 40 107 48 159 l6 41 -139 71 c-265 134 -517 192
-897 205 -66 3 -135 2 -154 -2z"/>
<path d="M3963 2640 c-76 -16 -104 -42 -118 -107 l-7 -33 56 0 c49 0 56 3 56
19 0 47 92 69 130 31 38 -38 16 -77 -45 -82 -37 -3 -40 -5 -43 -35 -3 -32 -2
-33 32 -33 62 0 86 -15 86 -54 0 -41 -20 -56 -74 -56 -48 0 -85 19 -92 47 -7
25 -35 36 -80 31 -26 -3 -29 -7 -26 -32 4 -39 36 -82 75 -103 18 -9 64 -18
102 -21 136 -8 215 36 215 123 0 37 -5 51 -26 70 -15 14 -33 25 -40 25 -8 0
-14 5 -14 10 0 6 4 10 10 10 22 0 50 45 50 80 0 42 -20 75 -58 94 -36 18 -137
27 -189 16z"/>
<path d="M7589 2635 c-90 -29 -136 -113 -126 -234 9 -111 75 -178 185 -188
149 -13 241 68 242 215 0 94 -35 163 -103 198 -42 22 -144 26 -198 9z m155
-105 c16 -16 21 -36 24 -95 4 -72 3 -75 -26 -105 -39 -38 -88 -41 -129 -6 -24
21 -28 32 -31 92 -3 77 9 111 48 132 32 17 88 8 114 -18z"/>
<path d="M2930 2431 l0 -211 55 0 55 0 0 65 c0 52 4 69 20 85 12 12 25 18 29
15 5 -2 33 -41 62 -85 44 -68 56 -80 80 -80 26 0 43 -21 38 -46 -5 -29 3 -35
39 -32 l37 3 0 60 c0 54 -2 60 -22 63 -15 2 -46 36 -93 99 -38 52 -70 98 -70
102 0 3 34 40 75 81 41 41 75 78 75 82 0 5 -24 8 -54 8 l-55 0 -73 -80 c-40
-44 -76 -80 -80 -80 -4 0 -8 35 -10 78 l-3 77 -52 3 -53 3 0 -210z"/>
<path d="M3509 2613 c-65 -169 -139 -372 -139 -382 0 -8 16 -11 53 -9 49 3 53
5 62 36 l9 32 78 0 77 0 9 -32 c8 -32 10 -33 66 -36 45 -2 57 0 54 10 -94 255
-143 386 -151 396 -5 6 -31 12 -58 12 -45 0 -51 -3 -60 -27z m107 -241 c-2 -2
-24 -2 -48 0 l-44 3 24 80 25 80 23 -80 c12 -44 21 -81 20 -83z"/>
<path d="M4441 2623 c-10 -19 -151 -392 -151 -400 0 -2 26 -3 57 -1 55 3 58 4
67 36 l9 32 73 0 74 0 14 -35 c14 -33 17 -35 65 -35 42 0 51 3 50 18 0 9 -33
103 -73 207 l-72 190 -51 3 c-42 2 -54 0 -62 -15z m82 -176 l25 -77 -50 0
c-36 0 -48 4 -45 13 3 6 13 42 23 79 10 37 19 66 21 65 1 -1 13 -37 26 -80z"/>
<path d="M4784 2627 c-2 -7 -3 -100 -2 -207 l3 -195 53 -3 52 -3 0 60 c0 48 4
65 23 87 l24 27 59 -86 c49 -71 64 -86 89 -89 27 -3 30 -7 33 -40 3 -37 4 -38
43 -38 l40 0 -3 62 c-3 54 -6 63 -25 68 -21 5 -153 175 -153 197 0 6 34 44 75
86 41 41 75 78 75 81 0 3 -27 6 -59 6 l-59 0 -73 -80 c-39 -44 -76 -80 -80
-80 -5 0 -9 36 -9 80 l0 80 -50 0 c-32 0 -52 -5 -56 -13z"/>
<path d="M5225 2630 c-9 -14 5 -73 19 -82 6 -4 32 -8 59 -8 l47 0 0 -160 0
-160 55 0 55 0 0 160 c0 121 3 160 13 162 6 0 32 1 57 2 l45 1 3 48 3 47 -175
0 c-108 0 -177 -4 -181 -10z"/>
<path d="M5670 2430 l0 -210 173 2 172 3 0 40 0 40 -117 3 -118 3 0 39 0 40
100 0 100 0 0 40 0 40 -100 0 -100 0 0 35 0 34 113 3 112 3 3 48 3 47 -170 0
-171 0 0 -210z"/>
<path d="M6158 2492 c-3 -166 -9 -182 -64 -182 -34 0 -34 -1 -34 -45 l0 -45
56 0 c110 0 145 49 148 213 2 59 7 101 14 105 6 4 31 6 56 4 l46 -4 0 -159 0
-159 55 0 55 0 -2 208 -3 207 -162 3 -161 2 -4 -148z"/>
<path d="M6610 2430 l0 -210 173 2 172 3 0 40 0 40 -117 3 -118 3 0 39 0 40
100 0 100 0 0 40 0 40 -100 0 -100 0 0 35 0 34 113 3 112 3 3 48 3 47 -170 0
-171 0 0 -210z"/>
<path d="M7049 2578 c-1 -35 -1 -128 -1 -208 l1 -145 47 -3 c57 -4 65 6 57 68
-5 39 -2 50 20 75 l25 29 33 -48 c96 -138 81 -126 155 -126 64 0 66 1 53 19
-8 11 -47 64 -86 119 -40 55 -73 103 -73 108 0 5 34 43 75 84 41 41 75 78 75
82 0 5 -27 8 -59 8 l-59 0 -72 -80 c-40 -44 -77 -77 -82 -74 -5 3 -8 38 -6 77
l3 72 -52 3 -53 3 -1 -63z"/>
<path d="M7970 2430 l0 -210 50 0 49 0 3 153 3 152 43 -135 c24 -74 46 -143
48 -152 4 -13 16 -18 39 -18 l34 0 41 133 c23 72 45 141 50 152 5 13 9 -36 9
-132 l1 -153 50 0 50 0 0 210 0 210 -75 0 -74 0 -9 -32 c-5 -18 -24 -84 -42
-146 l-34 -114 -14 49 c-7 26 -27 92 -43 146 l-30 97 -74 0 -75 0 0 -210z"/>
<path d="M630 2584 c-6 -14 -13 -50 -16 -80 l-7 -54 310 0 310 0 7 51 c4 29
10 65 13 80 l6 29 -307 0 -306 0 -10 -26z"/>
<path d="M1240 2426 c0 -10 16 -17 48 -21 240 -29 344 -53 497 -114 166 -66
385 -203 385 -240 0 -10 21 -39 47 -65 45 -45 47 -46 67 -29 53 45 129 140
122 151 -7 12 -122 80 -203 121 -84 42 -201 88 -298 117 -233 71 -665 123
-665 80z"/>
<path d="M615 2343 c4 -31 11 -67 16 -80 l9 -23 305 0 c193 0 305 4 305 10 0
5 -5 41 -12 80 l-12 70 -309 0 -309 0 7 -57z"/>
<path d="M1273 2216 c4 -10 7 -20 7 -22 0 -2 10 -4 23 -4 37 0 167 -30 247
-56 167 -56 399 -196 392 -237 -2 -9 7 -31 20 -48 21 -28 27 -30 65 -25 45 6
183 70 183 85 0 13 -188 122 -310 180 -159 75 -345 122 -548 138 -79 6 -85 5
-79 -11z"/>
<path d="M660 2185 c0 -11 33 -70 62 -112 l29 -43 304 0 c168 0 305 2 305 5 0
2 -11 20 -25 40 -13 21 -32 54 -42 76 l-17 39 -308 0 c-169 0 -308 -2 -308 -5z"/>
<path d="M1404 2001 c11 -12 31 -21 48 -21 43 0 178 -48 216 -76 17 -14 32
-32 32 -41 0 -12 -8 -14 -47 -9 -47 6 -48 6 -17 -8 82 -37 281 -62 272 -33 -8
22 -108 85 -192 120 -78 33 -199 67 -291 83 l-40 7 19 -22z"/>
<path d="M810 1973 c2 -24 153 -114 240 -143 136 -45 291 -37 438 21 46 19 68
39 42 39 -5 0 -34 20 -64 45 l-56 45 -300 0 c-165 0 -300 -3 -300 -7z"/>
</g>
</svg>
